<svg xmlns="http://www.w3.org/2000/svg" width="40" height="40" viewBox="0 0 40 40">
    <g fill="none" fill-rule="evenodd">
        <path stroke="#187ABF" d="M12 15.5A5.5 5.5 0 0 0 6.5 21v2a5.5 5.5 0 0 0 5.5 5.5h.692c1.114 0 1.864-.211 2.616-.63-.026.015.798-.48 1.035-.583.26-.113.509-.172.775-.172h7.627c.232 0 .455.088.806.275.125.067.698.392.856.477.64.347 1.145.548 1.612.612.1.014.196.021.289.021H29a5.5 5.5 0 0 0 5.5-5.5v-2a5.5 5.5 0 0 0-5.5-5.5h-.692c-.543 0-1.072.236-1.804.74.046-.03-.658.468-.84.582-.35.22-.627.336-.919.336h-7.841c-.276 0-.528-.108-.897-.332-.088-.053-.7-.447-.9-.567-.84-.5-1.578-.759-2.415-.759H12z"/>
        <g fill="#187ABF" transform="translate(26 19)">
            <circle cx="3" cy="1" r="1"/>
            <circle cx="3" cy="5" r="1"/>
            <circle cx="1" cy="3" r="1"/>
            <circle cx="5" cy="3" r="1"/>
        </g>
        <path stroke="#187ABF" stroke-linecap="round" d="M11.938 19.997v4.196M14.036 22.095H9.84M20.334 15.492V13.95c0-2.862 3.235-1.217 3.235-2.823 0-1.421-3.235-1.626-3.235-3.187 0-1.041.985-1.611 2.955-1.71"/>
    </g>
</svg>
