<svg xmlns="http://www.w3.org/2000/svg" width="40" height="40" viewBox="0 0 40 40">
    <path fill="none" fill-rule="nonzero" stroke="#187ABF" d="M31.776 11.846c.35-1.05.284-1.859-.198-2.428-.568-.481-1.378-.547-2.428-.197-1.05.35-1.991.94-2.822 1.772l-2.626 2.625-10.91-2.609c-.176-.055-.34-.01-.493.131l-2.1 2.1a.507.507 0 0 0-.148.444.55.55 0 0 0 .28.394l8.335 4.577-4.25 4.25-3.183-.87a.338.338 0 0 0-.131-.016.51.51 0 0 0-.378.148L9.15 23.758a.562.562 0 0 0-.148.41c.022.175.093.301.214.378l4.134 3.1 3.101 4.135a.59.59 0 0 0 .394.214c.186 0 .312-.05.41-.148l1.576-1.575a.5.5 0 0 0 .13-.508l-.869-3.184 4.25-4.25 4.578 8.336c.065.142.18.23.344.263a.361.361 0 0 0 .115.016.464.464 0 0 0 .312-.098l2.1-1.575c.186-.154.252-.334.197-.542l-2.625-11.42 2.642-2.641c.831-.832 1.422-1.773 1.772-2.823z"/>
</svg>
