<svg xmlns="http://www.w3.org/2000/svg" width="40" height="40" viewBox="0 0 40 40">
    <g fill="none" fill-rule="evenodd" stroke="#187ABF" transform="translate(7 7)">
        <circle cx="8.5" cy="16.5" r="8.5"/>
        <circle cx="8.5" cy="16.5" r="5.5"/>
        <path fill="#FFF" d="M15.926 18.09c1.795-.253 3.879-1.128 5.045-2.349.516-.54 3.179-2.572 2.483-3.131-.676-.544-5.224.413-5.078-.317.17-.853 7.037-5.444 6.91-6.355-.245-1.74-8.053 3.109-9.19 1.946-.924-.944 3.553-5.213 2.28-5.595-1.039-.312-5.787 4.099-6.929 4.26-.663.092 1.917-3.063 1.175-3.89-.743-.825-2.38 1.196-3.036 1.796a7.882 7.882 0 0 0-2.48 6.926 7.88 7.88 0 0 0 2.939 5.117 7.744 7.744 0 0 0 5.88 1.591z"/>
    </g>
</svg>
